<svg xmlns="http://www.w3.org/2000/svg" xmlns:xlink="http://www.w3.org/1999/xlink" version="1.1" x="0px" y="0px" viewBox="0 0 102 125" style="enable-background:new 0 0 102 100;" xml:space="preserve"><style type="text/css">
	.st0{fill:none;}
</style><g><g><path d="M67.7,20.3c-3.5,0-6.3,2.8-6.3,6.3c0,3.5,2.8,6.3,6.3,6.3c3.5,0,6.3-2.8,6.3-6.3C74,23.2,71.2,20.3,67.7,20.3z M67.7,20.3    c-3.5,0-6.3,2.8-6.3,6.3c0,3.5,2.8,6.3,6.3,6.3c3.5,0,6.3-2.8,6.3-6.3C74,23.2,71.2,20.3,67.7,20.3z M67.7,20.3    c-3.5,0-6.3,2.8-6.3,6.3c0,3.5,2.8,6.3,6.3,6.3c3.5,0,6.3-2.8,6.3-6.3C74,23.2,71.2,20.3,67.7,20.3z M67.7,20.3    c-3.5,0-6.3,2.8-6.3,6.3c0,3.5,2.8,6.3,6.3,6.3c3.5,0,6.3-2.8,6.3-6.3C74,23.2,71.2,20.3,67.7,20.3z M34.3,43.7    c-3.5,0-6.3,2.8-6.3,6.3s2.8,6.3,6.3,6.3c3.5,0,6.3-2.8,6.3-6.3S37.8,43.7,34.3,43.7z M67.7,20.3c-3.5,0-6.3,2.8-6.3,6.3    c0,3.5,2.8,6.3,6.3,6.3c3.5,0,6.3-2.8,6.3-6.3C74,23.2,71.2,20.3,67.7,20.3z M67.7,20.3c-3.5,0-6.3,2.8-6.3,6.3    c0,3.5,2.8,6.3,6.3,6.3c3.5,0,6.3-2.8,6.3-6.3C74,23.2,71.2,20.3,67.7,20.3z M34.3,43.7c-3.5,0-6.3,2.8-6.3,6.3s2.8,6.3,6.3,6.3    c3.5,0,6.3-2.8,6.3-6.3S37.8,43.7,34.3,43.7z M34.3,43.7c-3.5,0-6.3,2.8-6.3,6.3s2.8,6.3,6.3,6.3c3.5,0,6.3-2.8,6.3-6.3    S37.8,43.7,34.3,43.7z M67.7,20.3c-3.5,0-6.3,2.8-6.3,6.3c0,3.5,2.8,6.3,6.3,6.3c3.5,0,6.3-2.8,6.3-6.3    C74,23.2,71.2,20.3,67.7,20.3z M67.7,20.3c-3.5,0-6.3,2.8-6.3,6.3c0,3.5,2.8,6.3,6.3,6.3c3.5,0,6.3-2.8,6.3-6.3    C74,23.2,71.2,20.3,67.7,20.3z M34.3,43.7c-3.5,0-6.3,2.8-6.3,6.3s2.8,6.3,6.3,6.3c3.5,0,6.3-2.8,6.3-6.3S37.8,43.7,34.3,43.7z     M34.3,43.7c-3.5,0-6.3,2.8-6.3,6.3s2.8,6.3,6.3,6.3c3.5,0,6.3-2.8,6.3-6.3S37.8,43.7,34.3,43.7z M67.2,67c-3.4,0-6.2,2.7-6.3,6.1    v0.2c0,0,0,0,0,0v0c0,0,0,0,0,0v0c0,3.5,2.9,6.2,6.3,6.2c3.5,0,6.3-2.8,6.3-6.3C73.5,69.8,70.7,67,67.2,67z M67.7,20.3    c-3.5,0-6.3,2.8-6.3,6.3c0,3.5,2.8,6.3,6.3,6.3c3.5,0,6.3-2.8,6.3-6.3C74,23.2,71.2,20.3,67.7,20.3z M67.7,20.3    c-3.5,0-6.3,2.8-6.3,6.3c0,3.5,2.8,6.3,6.3,6.3c3.5,0,6.3-2.8,6.3-6.3C74,23.2,71.2,20.3,67.7,20.3z M67.2,67    c-3.4,0-6.2,2.7-6.3,6.1v0.2c0,0,0,0,0,0v0c0,0,0,0,0,0v0c0,3.5,2.9,6.2,6.3,6.2c3.5,0,6.3-2.8,6.3-6.3C73.5,69.8,70.7,67,67.2,67    z M34.3,43.7c-3.5,0-6.3,2.8-6.3,6.3s2.8,6.3,6.3,6.3c3.5,0,6.3-2.8,6.3-6.3S37.8,43.7,34.3,43.7z M34.3,43.7    c-3.5,0-6.3,2.8-6.3,6.3s2.8,6.3,6.3,6.3c3.5,0,6.3-2.8,6.3-6.3S37.8,43.7,34.3,43.7z M67.2,67c-3.4,0-6.2,2.7-6.3,6.1v0.2    c0,0,0,0,0,0v0c0,0,0,0,0,0v0c0,3.5,2.9,6.2,6.3,6.2c3.5,0,6.3-2.8,6.3-6.3C73.5,69.8,70.7,67,67.2,67z M67.7,20.3    c-3.5,0-6.3,2.8-6.3,6.3c0,3.5,2.8,6.3,6.3,6.3c3.5,0,6.3-2.8,6.3-6.3C74,23.2,71.2,20.3,67.7,20.3z M67.7,20.3    c-3.5,0-6.3,2.8-6.3,6.3c0,3.5,2.8,6.3,6.3,6.3c3.5,0,6.3-2.8,6.3-6.3C74,23.2,71.2,20.3,67.7,20.3z M34.3,43.7    c-3.5,0-6.3,2.8-6.3,6.3s2.8,6.3,6.3,6.3c3.5,0,6.3-2.8,6.3-6.3S37.8,43.7,34.3,43.7z M67.2,67c-3.4,0-6.2,2.7-6.3,6.1v0.2    c0,0,0,0,0,0v0c0,0,0,0,0,0v0c0,3.5,2.9,6.2,6.3,6.2c3.5,0,6.3-2.8,6.3-6.3C73.5,69.8,70.7,67,67.2,67z M67.7,33    c3.5,0,6.3-2.8,6.3-6.3c0-3.5-2.8-6.3-6.3-6.3c-3.5,0-6.3,2.8-6.3,6.3C61.3,30.2,64.2,33,67.7,33z M67.2,67    c-3.4,0-6.2,2.7-6.3,6.1v0.2c0,0,0,0,0,0v0c0,0,0,0,0,0v0c0,3.5,2.9,6.2,6.3,6.2c3.5,0,6.3-2.8,6.3-6.3C73.5,69.8,70.7,67,67.2,67    z M34.3,43.7c-3.5,0-6.3,2.8-6.3,6.3s2.8,6.3,6.3,6.3c3.5,0,6.3-2.8,6.3-6.3S37.8,43.7,34.3,43.7z M34.3,43.7    c-3.5,0-6.3,2.8-6.3,6.3s2.8,6.3,6.3,6.3c3.5,0,6.3-2.8,6.3-6.3S37.8,43.7,34.3,43.7z M67.2,67c-3.4,0-6.2,2.7-6.3,6.1v0.2    c0,0,0,0,0,0v0c0,0,0,0,0,0v0c0,3.5,2.9,6.2,6.3,6.2c3.5,0,6.3-2.8,6.3-6.3C73.5,69.8,70.7,67,67.2,67z M67.7,20.3    c-3.5,0-6.3,2.8-6.3,6.3c0,3.5,2.8,6.3,6.3,6.3c3.5,0,6.3-2.8,6.3-6.3C74,23.2,71.2,20.3,67.7,20.3z M67.7,20.3    c-3.5,0-6.3,2.8-6.3,6.3c0,3.5,2.8,6.3,6.3,6.3c3.5,0,6.3-2.8,6.3-6.3C74,23.2,71.2,20.3,67.7,20.3z M67.2,67    c-3.4,0-6.2,2.7-6.3,6.1v0.2c0,0,0,0,0,0v0c0,0,0,0,0,0v0c0,3.5,2.9,6.2,6.3,6.2c3.5,0,6.3-2.8,6.3-6.3C73.5,69.8,70.7,67,67.2,67    z M34.3,43.7c-3.5,0-6.3,2.8-6.3,6.3s2.8,6.3,6.3,6.3c3.5,0,6.3-2.8,6.3-6.3S37.8,43.7,34.3,43.7z M34.3,43.7    c-3.5,0-6.3,2.8-6.3,6.3s2.8,6.3,6.3,6.3c3.5,0,6.3-2.8,6.3-6.3S37.8,43.7,34.3,43.7z M67.7,20.3c-3.5,0-6.3,2.8-6.3,6.3    c0,3.5,2.8,6.3,6.3,6.3c3.5,0,6.3-2.8,6.3-6.3C74,23.2,71.2,20.3,67.7,20.3z M67.7,20.3c-3.5,0-6.3,2.8-6.3,6.3    c0,3.5,2.8,6.3,6.3,6.3c3.5,0,6.3-2.8,6.3-6.3C74,23.2,71.2,20.3,67.7,20.3z M34.3,43.7c-3.5,0-6.3,2.8-6.3,6.3s2.8,6.3,6.3,6.3    c3.5,0,6.3-2.8,6.3-6.3S37.8,43.7,34.3,43.7z M34.3,43.7c-3.5,0-6.3,2.8-6.3,6.3s2.8,6.3,6.3,6.3c3.5,0,6.3-2.8,6.3-6.3    S37.8,43.7,34.3,43.7z M67.7,20.3c-3.5,0-6.3,2.8-6.3,6.3c0,3.5,2.8,6.3,6.3,6.3c3.5,0,6.3-2.8,6.3-6.3    C74,23.2,71.2,20.3,67.7,20.3z M67.7,20.3c-3.5,0-6.3,2.8-6.3,6.3c0,3.5,2.8,6.3,6.3,6.3c3.5,0,6.3-2.8,6.3-6.3    C74,23.2,71.2,20.3,67.7,20.3z M34.3,43.7c-3.5,0-6.3,2.8-6.3,6.3s2.8,6.3,6.3,6.3c3.5,0,6.3-2.8,6.3-6.3S37.8,43.7,34.3,43.7z     M34.3,43.7c-3.5,0-6.3,2.8-6.3,6.3s2.8,6.3,6.3,6.3c3.5,0,6.3-2.8,6.3-6.3S37.8,43.7,34.3,43.7z M67.7,20.3    c-3.5,0-6.3,2.8-6.3,6.3c0,3.5,2.8,6.3,6.3,6.3c3.5,0,6.3-2.8,6.3-6.3C74,23.2,71.2,20.3,67.7,20.3z M67.7,20.3    c-3.5,0-6.3,2.8-6.3,6.3c0,3.5,2.8,6.3,6.3,6.3c3.5,0,6.3-2.8,6.3-6.3C74,23.2,71.2,20.3,67.7,20.3z M67.7,20.3    c-3.5,0-6.3,2.8-6.3,6.3c0,3.5,2.8,6.3,6.3,6.3c3.5,0,6.3-2.8,6.3-6.3C74,23.2,71.2,20.3,67.7,20.3z M67.7,20.3    c-3.5,0-6.3,2.8-6.3,6.3c0,3.5,2.8,6.3,6.3,6.3c3.5,0,6.3-2.8,6.3-6.3C74,23.2,71.2,20.3,67.7,20.3z M67.7,20.3    c-3.5,0-6.3,2.8-6.3,6.3c0,3.5,2.8,6.3,6.3,6.3c3.5,0,6.3-2.8,6.3-6.3C74,23.2,71.2,20.3,67.7,20.3z M67.7,20.3    c-3.5,0-6.3,2.8-6.3,6.3c0,3.5,2.8,6.3,6.3,6.3c3.5,0,6.3-2.8,6.3-6.3C74,23.2,71.2,20.3,67.7,20.3z"/><path d="M79.9,8H22.1C14.9,8,9,13.9,9,21.1v57.8C9,86.1,14.9,92,22.1,92h57.8C87.1,92,93,86.1,93,78.9V21.1C93,13.9,87.1,8,79.9,8    z M77.7,52H44.5c-0.9,4.8-5.1,8.3-10.1,8.3c-5,0-9.2-3.6-10.1-8.3c-1-0.1-1.9-0.9-1.9-2s0.8-1.9,1.9-2c0.9-4.8,5.1-8.3,10.1-8.3    c5,0,9.2,3.6,10.1,8.3h33.2c1.1,0,2,0.9,2,2C79.7,51.1,78.8,52,77.7,52z M79.7,73.3c0,1.1-0.9,2-2,2h-0.3    c-0.9,4.7-5.1,8.3-10.1,8.3c-5,0-9.2-3.6-10.1-8.3H24.3c-1.1,0-2-0.9-2-2c0-1.1,0.9-2,2-2h32.8C58,66.6,62.2,63,67.2,63    c5,0,9.2,3.6,10.1,8.3h0.3C78.8,71.3,79.7,72.2,79.7,73.3z M77.8,28.7c-0.9,4.7-5.1,8.3-10.1,8.3c-5,0-9.2-3.6-10.1-8.3H24.3    c-1.1,0-2-0.9-2-2c0-1.1,0.9-2,2-2h33.2c0.9-4.8,5.1-8.3,10.1-8.3c5,0,9.2,3.6,10.1,8.4c1,0.1,1.9,0.9,1.9,2    C79.7,27.7,78.8,28.6,77.8,28.7z"/></g><g><path d="M60.9,73.3L60.9,73.3C60.9,73.4,60.9,73.3,60.9,73.3l0-0.2C60.9,73.2,60.9,73.3,60.9,73.3z"/></g><g><path d="M74,26.7c0,3.5-2.8,6.3-6.3,6.3c-3.5,0-6.3-2.8-6.3-6.3c0-3.5,2.8-6.3,6.3-6.3C71.2,20.3,74,23.2,74,26.7z"/></g><g><g><path d="M40.7,50c0,3.5-2.8,6.3-6.3,6.3c-3.5,0-6.3-2.8-6.3-6.3s2.8-6.3,6.3-6.3C37.8,43.7,40.7,46.5,40.7,50z"/></g></g><g><path d="M73.5,73.3c0,3.5-2.8,6.3-6.3,6.3c-3.4,0-6.3-2.8-6.3-6.2v0c0,0,0,0,0,0v0c0,0,0,0,0,0v-0.2c0.1-3.4,2.9-6.1,6.3-6.1    C70.7,67,73.5,69.8,73.5,73.3z"/></g></g></svg>